# xmcd
#
# Track frame offsets:
#	150
#	17195
#	39460
#
# Disc length: 768 seconds
#
# Revision: 2
# Processed by: cddbd v1.5.2PL0 Copyright (c) Steve Scherf et al.
# Submitted via: audiograbber 1.83.01
#
DISCID=1c02fe03
DTITLE=Waltari - Far Away
DYEAR=1997
DGENRE=Metal
TTITLE0=Waltari - Far Away [Radio Edit]
TTITLE1=Waltari feat. Apocalyptica - Look Out Tonite
TTITLE2=Waltari - Blind Zone
EXTD=
EXTT0=
EXTT1=
EXTT2=feat. Nena
PLAYORDER=
